<svg xmlns="http://www.w3.org/2000/svg" height="48" viewBox="0 -960 960 960" width="48"><path d="M190-98q-38.425 0-64.713-26.987Q99-151.975 99-189v-581q0-37.438 26.287-64.719Q151.575-862 190-862h182q11-34 39.5-57t68.5-23q40 0 68.5 23t39.5 57h182q38.838 0 65.419 27.281Q862-807.438 862-770v581q0 37.025-26.581 64.013Q808.838-98 770-98H190Zm101-193h258v-57H291v57Zm0-160h378v-57H291v57Zm0-160h378v-57H291v57Zm189-178q17.467 0 29.233-11.767Q521-812.533 521-830t-11.767-29.233Q497.467-871 480-871t-29.233 11.767Q439-847.467 439-830t11.767 29.233Q462.533-789 480-789Z"/></svg>