<svg version="1.1" xmlns="http://www.w3.org/2000/svg" xmlns:xlink="http://www.w3.org/1999/xlink" width="48" height="48" viewBox="0,0,256,256"><g fill="#ffffff" fill-rule="nonzero" stroke="none" stroke-width="1" stroke-linecap="butt" stroke-linejoin="miter" stroke-miterlimit="10" stroke-dasharray="" stroke-dashoffset="0" font-family="none" font-weight="none" font-size="none" text-anchor="none" style="mix-blend-mode: normal"><path d="M85.12,213.76c-23.68197,0 -42.88,-19.19803 -42.88,-42.88v-85.76c0,-23.68197 19.19803,-42.88 42.88,-42.88h85.76c23.68197,0 42.88,19.19803 42.88,42.88v85.76c0,23.68197 -19.19803,42.88 -42.88,42.88z" id="shape"></path></g><g fill="#800080" fill-rule="evenodd" stroke="none" stroke-width="1" stroke-linecap="butt" stroke-linejoin="miter" stroke-miterlimit="10" stroke-dasharray="" stroke-dashoffset="0" font-family="none" font-weight="none" font-size="none" text-anchor="none" style="mix-blend-mode: normal"><g transform="scale(5.33333,5.33333)"><path d="M48,24c0,13.2548 -10.7452,24 -24,24c-13.2548,0 -24,-10.7452 -24,-24c0,-13.2548 10.7452,-24 24,-24c13.2548,0 24,10.7452 24,24zM16.0715,21.8015c-2.4042,1.0497 -4.8744,2.1283 -7.13325,3.3725c-1.17948,0.8636 0.38813,1.4745 1.85885,2.0475c0.2338,0.0911 0.4651,0.1812 0.6826,0.2712c0.181,0.0557 0.365,0.1143 0.5515,0.1737c1.6357,0.5211 3.4595,1.1022 5.0475,0.2281c2.6086,-1.4985 5.0703,-3.2309 7.5302,-4.962c0.8059,-0.5672 1.6116,-1.1342 2.4222,-1.6928c0.038,-0.0243 0.0808,-0.0521 0.1277,-0.0824c0.6905,-0.4477 2.2436,-1.4544 1.6691,-0.0672c-1.3584,1.4856 -2.8135,2.8006 -4.2764,4.1229c-0.986,0.8911 -1.9756,1.7855 -2.9416,2.7375c-0.8413,0.6836 -1.715,2.0583 -0.7729,3.0156c2.1699,1.519 4.3737,3.0012 6.5762,4.4826c0.7167,0.482 1.4334,0.964 2.1486,1.4472c1.2122,0.9678 3.1067,0.1849 3.3732,-1.3274c0.1185,-0.6957 0.2375,-1.3913 0.3565,-2.087c0.6576,-3.8447 1.3154,-7.6908 1.8965,-11.548c0.079,-0.6051 0.1685,-1.2101 0.2581,-1.8154c0.2171,-1.4671 0.4345,-2.936 0.5024,-4.411c-0.175,-1.472 -1.9598,-1.1483 -2.953,-0.8173c-5.1052,1.9426 -10.1594,4.0292 -15.1936,6.1526c-0.5703,0.2526 -1.1484,0.505 -1.7304,0.7591z"></path></g></g></svg>